<?xml version="1.0" encoding="utf-8"?>
<!DOCTYPE svg PUBLIC "-//W3C//DTD SVG 20010904//EN" "http://www.w3.org/TR/2001/REC-SVG-20010904/DTD/svg10.dtd">
<svg version="1.0" xmlns="http://www.w3.org/2000/svg" width="400px" height="120px" viewBox="0 0 400 120" preserveAspectRatio="xMidYMid meet">
 <g fill="#ffffff">
  <path d="M47.5 88.1 l-3 -0.7 3.5 -0.8 c6.1 -1.4 10.6 -4.3 22.1 -14.1 6.1 -5.3 12.8 -10.7 14.9 -12 4.5 -2.8 15 -6.5 18.2 -6.4 1.6 0 1 0.4 -1.7 1.3 -6.9 2.2 -8.7 3.5 -23 17.6 -13.1 12.9 -14.3 13.8 -19.3 14.9 -5.8 1.2 -7.2 1.2 -11.7 0.2z"/>
  <path d="M137 64.5 l0 -17.5 -4.5 0 c-4.3 0 -4.5 -0.1 -4.5 -3 l0 -3 12 0 12 0 0 3 c0 2.9 -0.2 3 -4.5 3 l-4.5 0 0 17.5 0 17.5 -3 0 -3 0 0 -17.5z"/>
  <path d="M156 61.5 l0 -20.5 3 0 3 0 0 7.7 c0 7.6 0 7.6 2 5.8 2.3 -2.1 7.2 -2.4 9.4 -0.6 2.5 2.1 3.6 7.8 3.6 18.4 l0 9.7 -3 0 -3 0 0 -10.9 c0 -12 -0.7 -13.5 -5.7 -12.9 l-2.8 0.3 -0.3 11.8 -0.3 11.7 -2.9 0 -3 0 0 -20.5z"/>
  <path d="M186.8 79.1 c-2.9 -2.6 -3.3 -3.5 -3.6 -9.8 -0.5 -9.1 1.4 -13.8 6.4 -15.9 7.4 -3.1 14.4 2.6 14.4 11.9 l0 3.7 -7.5 0 -7.5 0 0 2.8 c0 1.5 0.5 3.3 1.2 4 1.6 1.6 5.3 1.5 7.1 -0.2 1.7 -1.7 5.7 -1 5.7 0.9 0 2.5 -5.1 5.5 -9.1 5.5 -2.8 0 -4.7 -0.8 -7.1 -2.9z m11.2 -17.1 c0 -3.3 -2.7 -5.4 -5.7 -4.3 -2.3 0.9 -3.3 2.3 -3.3 5.1 0 2 0.5 2.2 4.5 2.2 4.3 0 4.5 -0.1 4.5 -3z"/>
  <path d="M226.1 64.3 c-1.8 -9.8 -3.5 -19 -3.8 -20.5 -0.5 -2.6 -0.3 -2.8 2.4 -2.8 l3 0 1.7 11.8 c2.6 17.6 2.8 18.6 3.6 17.1 0.4 -0.8 2 -7.6 3.5 -15.1 2.6 -12.6 3 -13.8 5 -13.8 2 0 2.4 1.2 5 13.3 1.5 7.2 3.1 14.1 3.5 15.1 0.8 2.4 1 1.6 3.6 -16.1 l1.8 -12.3 2.9 0 c2.7 0 2.9 0.2 2.4 2.8 -0.3 1.5 -2 10.7 -3.8 20.5 l-3.3 17.7 -2.7 0 c-2.9 0 -3.4 -1.3 -6.9 -19.5 -1.3 -7 -1.9 -8.9 -2.5 -8.4 -0.2 0.3 -1.5 5.6 -2.9 11.9 -1.4 6.3 -2.8 12.5 -3.1 13.8 -0.4 1.6 -1.3 2.2 -3.3 2.2 l-2.8 0 -3.3 -17.7z"/>
  <path d="M266.3 79.4 c-2.2 -2.2 -2.5 -3.2 -2 -6.7 0.8 -5.5 3.5 -7.7 9.8 -7.7 4.8 0 4.9 -0.1 4.9 -3 0 -4 -3.8 -6 -7.2 -3.8 -2.7 1.6 -5.8 1.3 -5.8 -0.8 0 -2.3 5 -4.9 9.3 -4.8 2.8 0.1 4.6 0.9 6.5 2.7 2.4 2.5 2.6 3.3 3 14.7 l0.4 12 -3.1 0 c-2.1 0 -3.1 -0.5 -3.1 -1.6 0 -1.4 -0.2 -1.4 -2.2 0 -3.4 2.4 -7.5 2 -10.5 -1z m12.5 -6.6 c0.3 -3.7 0.3 -3.8 -3.2 -3.8 -3.2 0 -6.6 2 -6.6 4 0 3.1 1.4 4.1 5.4 3.8 4 -0.3 4.1 -0.4 4.4 -4z"/>
  <path d="M293.6 68.1 c-2.6 -7.7 -4.6 -14.3 -4.6 -14.6 0 -0.3 1.2 -0.5 2.7 -0.3 2.6 0.3 2.9 0.9 5.3 10.1 1.4 5.3 2.7 9.7 3 9.7 0.3 0 1.6 -4.4 3 -9.7 2.4 -9.2 2.7 -9.8 5.3 -10.1 1.5 -0.2 2.7 0 2.7 0.3 0 0.3 -2 6.9 -4.6 14.6 -6.1 18.7 -6.7 18.7 -12.8 0z"/>
  <path d="M319.8 79.1 c-2.9 -2.6 -3.3 -3.5 -3.6 -9.8 -0.5 -9.1 1.4 -13.8 6.4 -15.9 7.4 -3.1 14.4 2.6 14.4 11.9 l0 3.7 -7.5 0 -7.5 0 0 2.8 c0 1.5 0.5 3.3 1.2 4 1.6 1.6 5.3 1.5 7.1 -0.2 1.7 -1.7 5.7 -1 5.7 0.9 0 2.5 -5.1 5.5 -9.1 5.5 -2.8 0 -4.7 -0.8 -7.1 -2.9z m11.2 -17.1 c0 -3.3 -2.7 -5.4 -5.7 -4.3 -2.3 0.9 -3.3 2.3 -3.3 5.1 0 2 0.5 2.2 4.5 2.2 4.3 0 4.5 -0.1 4.5 -3z"/>
  <path d="M345.9 80.5 c-2.3 -1.2 -4.5 -4.3 -3.7 -5 2.6 -2 4.2 -2.1 5.9 -0.4 2.6 2.6 7.5 2.5 8.9 -0.2 1.6 -2.8 -0.2 -4.8 -5.2 -5.5 -5.8 -1 -8.8 -3.8 -8.8 -8.3 0 -5.3 3.5 -8.4 9.5 -8.4 3.4 0 5.2 0.6 7 2.3 3.1 2.9 3.1 3.4 0.1 4.8 -2 0.9 -2.5 0.8 -3 -0.4 -0.4 -1.1 -1.7 -1.4 -4.3 -1.2 -3.3 0.3 -3.8 0.6 -3.8 2.7 0 2.2 0.7 2.6 5.5 3.8 3 0.8 6.3 2.3 7.3 3.5 2.4 2.8 2.1 7.2 -0.6 10.4 -2.9 3.3 -10.6 4.3 -14.8 1.9z"/>
  <path d="M27.8 76.7 c-8.6 -3.3 -14.3 -10.7 -15.3 -20.2 -0.7 -6.5 0.9 -12.2 4.9 -17 l1.7 -2 -0.9 2 c-6.1 13.3 5 29.5 20.3 29.5 5.5 0 10.2 -2 22.2 -9.2 15.8 -9.6 21.1 -11.7 29.5 -11.8 7.5 0 9.9 1.5 3.7 2.3 -5.8 0.8 -12.8 4.5 -25.8 13.6 -15.4 11 -20.5 13.3 -29.4 13.8 -4.5 0.2 -8.6 -0.2 -10.9 -1z"/>
  <path d="M22.7 56.5 c-2.3 -4.9 -2.2 -13.2 0.3 -17.3 5.2 -8.5 17.8 -10.6 25.2 -4.1 2.2 1.9 2.2 2 0.1 1 -6.2 -3 -16 0.1 -21 6.6 -2.4 3.2 -2.8 4.5 -2.8 10.5 0 3.7 0 6.8 -0.1 6.8 0 0 -0.8 -1.6 -1.7 -3.5z"/>
  <path d="M370 48.5 c0 -5.8 -0.2 -6.5 -2 -6.5 -1.3 0 -2 -0.7 -2 -2 0 -1.8 0.7 -2 6 -2 5.3 0 6 0.2 6 2 0 1.3 -0.7 2 -2 2 -1.8 0 -2 0.7 -2 6.5 0 5.8 -0.2 6.5 -2 6.5 -1.8 0 -2 -0.7 -2 -6.5z"/>
  <path d="M381 46.5 c0 -8.3 0.1 -8.5 2.4 -8.5 1.7 0 2.7 0.9 3.6 3 1.8 4.4 2.8 4.5 4.7 0.6 1 -2.2 2.4 -3.6 3.5 -3.6 1.6 0 1.8 1 1.8 8.5 0 6.8 -0.3 8.5 -1.4 8.5 -1.1 0 -1.6 -1.5 -1.8 -5.2 l-0.4 -5.3 -1.7 3.8 c-0.9 2 -1.9 3.7 -2.2 3.7 -0.3 0 -1.3 -1.7 -2.2 -3.7 l-1.7 -3.8 -0.4 5.3 c-0.3 4.4 -0.6 5.2 -2.3 5.2 -1.7 0 -1.9 -0.7 -1.9 -8.5z"/>
 </g>
</svg>