<?xml version="1.0" encoding="utf-8"?>
<!DOCTYPE svg PUBLIC "-//W3C//DTD SVG 20010904//EN" "http://www.w3.org/TR/2001/REC-SVG-20010904/DTD/svg10.dtd">
<svg version="1.0" xmlns="http://www.w3.org/2000/svg" width="250px" height="200px" viewBox="0 0 250 200" preserveAspectRatio="xMidYMid meet">
 <g fill="#ffffff">
  <path d="M97.8 147.4 c-2.7 -0.8 -4.8 -1.6 -4.8 -1.8 0 -0.2 3.1 -1.1 6.8 -2.1 9.5 -2.3 19.2 -8 29.7 -17.4 21.6 -19.4 28.8 -25 37.9 -29.6 11.2 -5.5 18.7 -7.5 28.6 -7.4 9.4 0.1 14.3 1.7 5.4 1.8 -7.3 0.1 -14.9 2.2 -22.9 6.4 -6.4 3.4 -15.6 12.1 -33.9 32 -5.9 6.4 -12.6 12.8 -14.9 14.1 -8.9 5.2 -22.5 6.9 -31.9 4z"/>
  <path d="M67.8 129.4 c-7.8 -2.4 -16.8 -9.1 -21.5 -16.2 -5.4 -8.1 -6.7 -12.6 -6.7 -23.8 0 -8.2 0.3 -9.7 3.1 -15.5 3 -6 11.7 -16.1 9.8 -11.4 -4.9 12.6 -5.5 18 -2.6 27.3 4.2 13.8 16.6 23.1 31.9 24 12.2 0.7 18.7 -2 44.2 -18.3 26.3 -16.7 40.2 -20.3 58 -14.9 l5.5 1.7 -8.7 1.3 c-14.8 2.2 -25.1 7.7 -53.3 28.4 -10.6 7.8 -21.5 14 -29.5 16.7 -7.8 2.7 -22.7 3 -30.2 0.7z"/>
  <path d="M60.2 99.7 c-3.2 -3.4 -6.4 -11.4 -6.9 -17.6 -1.9 -21.5 21.8 -38 41.2 -28.5 5.3 2.6 14.2 10.6 10 8.9 -8.3 -3.3 -10.4 -3.7 -16.5 -3.2 -11.8 0.8 -21.9 8.2 -25.4 18.5 -1.9 5.3 -2.1 15.5 -0.5 20.1 1.4 4.1 0.8 4.7 -1.9 1.8z"/>
 </g>
</svg>